<svg xmlns="http://www.w3.org/2000/svg" width="39" height="40" viewBox="0 0 39 40" fill="none">
  <path fill-rule="evenodd" clip-rule="evenodd" d="M13.5027 39.5341C13.137 39.5341 12.764 39.4898 12.3925 39.3954C10.0384 38.8004 8.62414 36.4591 9.23653 34.1651L14.0226 16.21C14.6335 13.9187 17.0302 12.5386 19.3931 13.135C21.7471 13.7314 23.1614 16.0727 22.549 18.3667L17.763 36.3204C17.249 38.2527 15.4617 39.5341 13.5027 39.5341Z" fill="url(#paint0_linear_4055_5572)"/>
  <path fill-rule="evenodd" clip-rule="evenodd" d="M24.4373 32.6259C24.1209 32.6259 23.8 32.593 23.4806 32.523C21.11 32.0101 19.6155 29.7199 20.1415 27.4097L20.4214 26.1853C22.3656 17.6688 25.8951 9.69236 30.9104 2.47456C32.2729 0.514382 35.004 0.00290668 37.0142 1.32874C39.0244 2.65601 39.5489 5.32196 38.1878 7.28214C33.7967 13.6041 30.7052 20.5905 29.0027 28.0455L28.7244 29.2684C28.2687 31.2658 26.4519 32.6259 24.4373 32.6259Z" fill="url(#paint1_linear_4055_5572)"/>
  <path fill-rule="evenodd" clip-rule="evenodd" d="M16.875 23.127L20.4245 27.1794L19.309 30.7377L16.875 23.127Z" fill="black" fill-opacity="0.237742"/>
  <path fill-rule="evenodd" clip-rule="evenodd" d="M24.325 32.6248C22.7263 32.6248 21.1848 31.7755 20.4038 30.2971L14.5699 19.2491C13.4586 17.1416 14.31 14.5551 16.4725 13.4713C18.6407 12.3875 21.2935 13.2211 22.4033 15.3243L28.2373 26.3723C29.35 28.4799 28.4986 31.0664 26.3347 32.1487C25.6902 32.4718 25.0017 32.6248 24.325 32.6248Z" fill="url(#paint2_linear_4055_5572)"/>
  <path fill-rule="evenodd" clip-rule="evenodd" d="M9.81814 37.6285L0.742128 24.3743C-0.606534 22.4058 -0.063262 19.7443 1.95461 18.4301C3.97101 17.1144 6.69909 17.6444 8.04628 19.6129L17.1223 32.8671C18.471 34.8356 17.9277 37.4971 15.9098 38.8113C15.1601 39.2999 14.3122 39.5342 13.4746 39.5342C12.0557 39.5342 10.6645 38.8656 9.81814 37.6285Z" fill="url(#paint3_linear_4055_5572)"/>
  <defs>
    <linearGradient id="paint0_linear_4055_5572" x1="15.0753" y1="9.84152" x2="6.19078" y2="21.2486" gradientUnits="userSpaceOnUse">
      <stop stop-color="#32A3FF"/>
      <stop offset="1" stop-color="#7134FF"/>
    </linearGradient>
    <linearGradient id="paint1_linear_4055_5572" x1="29.7411" y1="-2.86119" x2="15.3763" y2="10.1253" gradientUnits="userSpaceOnUse">
      <stop stop-color="#34A1FF"/>
      <stop offset="1" stop-color="#7036FF"/>
    </linearGradient>
    <linearGradient id="paint2_linear_4055_5572" x1="12.3104" y1="15.492" x2="19.7336" y2="26.1399" gradientUnits="userSpaceOnUse">
      <stop stop-color="#34A0FF"/>
      <stop offset="1" stop-color="#7134FF"/>
    </linearGradient>
    <linearGradient id="paint3_linear_4055_5572" x1="0.817991" y1="25.3199" x2="9.44968" y2="33.4245" gradientUnits="userSpaceOnUse">
      <stop stop-color="#32A3FF"/>
      <stop offset="1" stop-color="#7134FF"/>
    </linearGradient>
  </defs>
</svg>